#!OML:ASF H:\GeneralSubjects\Female5\Project 1\Capture day 1\Session 1\Female5.ASF
:FULLY-SPECIFIED
:DEGREES
16
root -9.45914 16.0956 3.88206 -160.783 -84.7541 167.855
lowerback 5.61503 1.91972 -2.19802
upperback -9.98639 2.03638 0.00411617
thorax -14.1879 1.07399 0.902676
lowerneck -18.2744 -0.891093 -0.211114
upperneck 32.3035 -1.45297 -1.604
head 14.0754 -1.1757 -0.934753
rclavicle 8.24956e-015 -2.38542e-015
rhumerus -43.7899 22.1989 -87.2782
rradius 30.1874
rwrist -12.1737
rhand -25.3389 -22.2593
rfingers 7.12502
rthumb 1.18425 -52.2358
lclavicle 8.24956e-015 -2.38542e-015
lhumerus -42.6269 8.03451 71.021
lradius 24.0542
lwrist -11.9053
lhand -27.8546 28.0874
lfingers 7.12502
lthumb -1.24548 58.0635
rfemur -6.73268 26.4958 21.2105
rtibia -5.99417
rfoot -2.26614 -21.2149
rtoes -25.8543
lfemur 8.70593 -30.9071 -37.3456
ltibia -1.23699
lfoot -40.8731 -0.109461
ltoes -13.9041
17
root -9.51628 16.1093 3.86082 -164.877 -84.6997 171.898
lowerback 5.28043 1.91036 -1.95892
upperback -10.0912 2.07186 0.204978
thorax -14.0992 1.07583 0.993611
lowerneck -18.0196 -0.868724 -0.35248
upperneck 32.4288 -1.35762 -1.707
head 14.0761 -1.17563 -0.936572
rclavicle -8.4732e-015 6.65929e-015
rhumerus -43.481 22.0637 -86.9575
rradius 29.7763
rwrist -12.5528
rhand -25.1533 -22.0038
rfingers 7.12502
rthumb 1.36349 -51.9792
lclavicle -8.4732e-015 6.65929e-015
lhumerus -42.5948 9.11357 70.8205
lradius 23.58
lwrist -12.5916
lhand -28.9945 28.7637
lfingers 7.12502
lthumb -2.34642 58.7306
rfemur -6.17973 26.8098 21.878
rtibia -6.37791
rfoot -2.19517 -21.3469
rtoes -25.6742
lfemur 9.07259 -31.0699 -37.1052
ltibia -1.2019
lfoot -41.3624 0.262494
ltoes -14.9621
18
root -9.56724 16.1165 3.83637 -168.186 -84.6525 175.173
lowerback 4.98614 1.89115 -1.82832
upperback -10.1884 2.07422 0.368408
thorax -14.03 1.07101 1.10834
lowerneck -17.8571 -0.859688 -0.598747
upperneck 32.6372 -1.37834 -1.44063
head 14.1373 -1.18697 -0.79374
rclavicle -1.36664e-014 -7.55382e-015
rhumerus -43.2159 21.8054 -86.5205
rradius 29.4929
rwrist -12.8976
rhand -24.7838 -22.163
rfingers 7.12502
rthumb 1.72041 -52.1358
lclavicle -1.36664e-014 -7.55382e-015
lhumerus -42.6658 10.0292 70.3844
lradius 23.0558
lwrist -13.4475
lhand -29.5282 29.3374
lfingers 7.12502
lthumb -2.86187 59.298
rfemur -5.61317 27.0162 22.499
rtibia -6.86084
rfoot -2.06187 -21.4982
rtoes -26.1234
lfemur 9.30106 -31.1877 -36.8572
ltibia -1.04212
lfoot -41.7411 1.71946
ltoes -17.6855
19
root -9.61297 16.1167 3.80544 -170.217 -84.6512 177.172
lowerback 4.8067 1.85129 -1.93362
upperback -10.3237 2.01356 0.510801
thorax -14.0884 1.06017 1.33875
lowerneck -17.7407 -0.825386 -0.623674
upperneck 32.9676 -1.40951 -1.27916
head 14.2604 -1.19311 -0.736445
rclavicle 2.06239e-015 -4.57205e-015
rhumerus -43.0667 21.6077 -86.0617
rradius 29.3119
rwrist -13.196
rhand -24.2338 -22.7166
rfingers 7.12502
rthumb 2.2516 -52.6844
lclavicle 2.06239e-015 -4.57205e-015
lhumerus -42.9963 10.6791 69.7507
lradius 22.6593
lwrist -14.5492
lhand -29.4897 29.5466
lfingers 7.12502
lthumb -2.82469 59.5076
rfemur -4.93414 27.1544 23.0595
rtibia -7.50371
rfoot -1.91892 -21.6414
rtoes -26.2732
lfemur 9.41071 -31.1952 -36.6431
ltibia -0.875983
lfoot -41.9158 1.80504
ltoes -17.7002
20
root -9.65719 16.1097 3.775 -169.68 -84.772 176.587
lowerback 4.71276 1.73286 -2.36222
upperback -10.456 1.80826 0.662678
thorax -14.2066 1.01775 1.78304
lowerneck -17.5003 -0.740676 -0.440593
upperneck 33.0484 -1.3295 -1.38543
head 14.2405 -1.15807 -0.797962
rclavicle 1.31446e-014 1.98785e-016
rhumerus -42.9776 21.4896 -85.5064
rradius 29.1441
rwrist -13.4419
rhand -23.9949 -22.7914
rfingers 7.12502
rthumb 2.4823 -52.7567
lclavicle 1.31446e-014 1.98785e-016
lhumerus -43.4386 11.0925 69.0941
lradius 22.2149
lwrist -15.4724
lhand -29.6177 29.436
lfingers 7.12502
lthumb -2.94828 59.3954
rfemur -4.0226 27.1124 23.4007
rtibia -8.43693
rfoot -1.95145 -21.8085
rtoes -25.2612
lfemur 9.56253 -31.2395 -36.7526
ltibia -0.732459
lfoot -42.0366 0.843928
ltoes -16.1904
